<svg xmlns="http://www.w3.org/2000/svg" width="320" height="205" viewBox="0 0 320 205"><rect width="100%" height="100%" fill="#0B0D10"/><g transform="translate(0 0) scale(1)"><rect x="18" y="45" width="90" height="110" rx="1" fill="none" stroke="#FFFFFF" stroke-width="2.8" opacity="0.35"/><rect x="42" y="36" width="98" height="128" rx="1" fill="none" stroke="#FFFFFF" stroke-width="2.8" opacity="0.48"/><rect x="70" y="28" width="106" height="146" rx="1" fill="none" stroke="#FFFFFF" stroke-width="2.8" opacity="0.62"/><rect x="102" y="18" width="114" height="164" rx="1" fill="none" stroke="#FFFFFF" stroke-width="2.8" opacity="0.82"/><rect x="140" y="8" width="122" height="182" rx="1" fill="none" stroke="#FFFFFF" stroke-width="2.8" opacity="1"/><g transform="translate(116 78)">
      <polygon points="0,14 18,4 36,14 18,24" fill="#AEB4BC" stroke="#FFFFFF" stroke-width="1.8"/>
      <polygon points="0,14 18,24 18,45 0,35" fill="#727A85" stroke="#FFFFFF" stroke-width="1.8"/>
      <polygon points="18,24 36,14 36,35 18,45" fill="#D1D5DA" stroke="#FFFFFF" stroke-width="1.8"/>
    </g><line x1="134" y1="100" x2="286" y2="100" stroke="#FFFFFF" stroke-width="4.5" stroke-linecap="round"/><circle cx="292" cy="100" r="7.5" fill="#FFFFFF"/></g></svg>